<?xml version="1.0" encoding="utf-8"?>
<!-- Generator: Adobe Illustrator 26.0.1, SVG Export Plug-In . SVG Version: 6.00 Build 0)  -->
<svg version="1.1" id="Camada_1" xmlns="http://www.w3.org/2000/svg" xmlns:xlink="http://www.w3.org/1999/xlink" x="0px" y="0px"
	 viewBox="0 0 2229.6 2574.5" style="enable-background:new 0 0 2229.6 2574.5;" xml:space="preserve">
<style type="text/css">
	.st0{fill:#E6AC49;}
	.st1{fill:#E5AE4D;}
	.st2{fill:#E6AD4B;}
	.st3{fill:#E6AD4C;}
	.st4{fill:#E5AD4C;}
	.st5{fill:#E5AD4B;}
	.st6{fill:#E3B057;}
	.st7{fill:#E3B15A;}
	.st8{fill:#E3B058;}
	.st9{fill:#E3B056;}
	.st10{fill:#C39D58;}
	.st11{fill:#D7B476;}
</style>
<g id="LOGO_Imagem">
	<path class="st0" d="M1116.3,203.4l37.7,23.7c65,38,130.4,75.4,195.6,113c76.9,44.3,153.7,88.6,230.6,132.9
		c112.4,64.9,224.8,129.7,337.2,194.6c38.9,22.4,77.8,44.6,116.8,66.7l6.8,3.6l-1.1,26.8c0,0-19.8-9.8-29.2-15.2
		c-113.6-65.5-227.1-131.2-340.6-196.9c-103.5-59.8-206.9-119.6-310.5-179.2c-79.8-46-159.5-92-239.3-138c-5.3-3-8.5-2.9-13.8,0.2
		c-94.7,55-189.5,109.9-284.4,164.6C706,467.4,589.8,534.5,473.5,601.5c-84.2,48.6-178.6,100.6-262.9,149v14.6
		c0.4,67,0.3,134,0.1,201l-0.1,11.2l-24.3,0.1c0,0-0.1-4.1-0.1-6.4c0-75.3,0.1-150.6-0.2-225.9c0-6.3,3.7-8.5,7.7-10.8
		c47.4-27.5,94.9-54.9,142.4-82.3c61.1-35.2,122.3-70.4,183.5-105.5c99.6-57.5,199.2-115,298.8-172.6
		c75.6-43.6,151.2-87.2,226.8-130.8"/>
	<path class="st0" d="M227.4,1550.3c28.7-10.8,56.2-24,81.1-41.9c62.2-44.7,113.1-99.2,141.8-171.7c9.8-24.8,13.5-50.4,3.3-76.5
		c-10.8-27.7-32.4-43.7-59-53.9c-29.1-11.1-59-9.8-89.5-5.4c-46,6.7-85.2,27-121.4,54.9c-8.5,6.4-15.9,14.2-21.9,23.1
		c-1.7,2.6-4.4,5.4-2.1,8.3c2.1,2.6,5.1,0.6,7.5-0.6c2.3-1.1,4.5-1.8,7.9,0.3c-14.3,14.1-24.3,32.8-46.9,35.6
		c-3.6,1.3-7.6,1.3-11.2,0c-18.5,0.3-23.9-24.4-18.3-39.3c11.9-31.7,35-53.9,62-72.5c27.9-19.1,58.5-32.2,90.9-42.3
		c44-13.7,88.9-19.8,134.5-15.3c43.4,4.3,83,18.9,110,56.6c19.8,27.7,23.4,59.1,20.2,91.7c-5.2,53.8-29,99.9-61.8,141.8
		c-47.9,61.2-107.7,107.4-178.5,138.9c-35.9,16-73.6,27.8-113.3,27.3c-28.5-0.4-39.7-18-37.6-44.1c2.3-27.9,13-53.5,22.9-79
		c33.7-86.2,71.2-170.7,109.8-254.8c5.8-12.6,16.3-13.4,26.5-16.4c6.2-1.8,12.9-2.2,19.4-3.1c10.4-1.4,14.8,3.4,10.9,12.9
		c-10.1,24.8-21.1,49.3-31.2,74.1c-30.6,74.8-61,149.6-91.4,224.5c-3.5,8.6-6.7,17.3-9.8,26c-2.3,6.4,0.4,9.5,6.9,8.6
		c8.5-1.1,17-2.7,25.5-4C218.8,1553.3,223.4,1552.8,227.4,1550.3z"/>
	<path class="st0" d="M2018.3,1797.4c-0.3-72.2,0.1-166-0.5-238.2l12.1-0.4c0.3,0,12.4,0,12.4,0c-0.6,77.4-0.4,174.4-0.1,251.8
		c0,0-2.2,1.5-7.8,4.7c-88.1,50.8-176.2,101.6-264.2,152.5c-115.9,66.8-231.9,133.6-347.9,200.3
		c-100.8,58.1-201.6,116.3-302.4,174.6c-5.6,3.2-8.8,2.3-13.7-0.6c-90-52.4-180.1-104.6-270.2-156.7
		c-127.2-73.5-254.4-147-381.6-220.4c-83.6-48.3-167.2-96.7-250.8-145.1c-5-2.9-13.6-8.7-13.6-8.7v-26.2c0,0,45.3,25.8,67.9,38.7
		c81.3,46.7,162.6,93.6,243.8,140.7c88.3,51.1,176.6,102.1,264.9,153.2c105.2,60.8,210.4,121.7,315.6,182.5l32.4,17.9l22.7-12.9
		c91.3-53.4,183.2-105.8,274.8-158.7c115.9-67,231.8-134,347.6-201.1"/>
	<path class="st0" d="M850.5,1417.4c-12.2,18.6-22.9,38.2-36.7,55.8c-10.5,13.3-21.6,25.8-36.6,34.3c-25.1,14.2-51.7,1.2-56.4-27.5
		c-3.8-23.7,0.5-46.8,6.8-69.2c12.4-43.7,27.1-86.7,44.2-128.8c1.5-3.8,3.4-7.5,5.7-10.9c6.4-9.8,14.1-12.8,22.3-8.8
		c12.9,6.2,15.5,12.5,11.6,25.4c-13.9,46.1-30.2,91.5-40.9,138.5c-1.6,7.1-3,14.2-2.6,21.5s3.5,8.6,9.2,4.2
		c8.6-6.6,15.1-15,21.2-23.8c29.6-43.1,58-87.1,79.2-135.1c5.8-13.1,9.2-27.3,15.3-40.4c7.6-16.2,22-22.1,37.9-24.9
		c8.5-1.5,14.1,6,11.8,15.5c-5.8,23.4-15.2,45.7-22.7,68.6c-11.7,35.4-21.5,71.2-23.5,108.7c-0.2,3.4-0.2,6.9,0.3,10.3
		c1.3,9.6,7.5,12.9,16.2,8.4c11.1-5.7,18.1-15.4,25.4-25.1c23.7-31.6,37.1-68,49.9-104.8c9.1-26,19-51.7,28.6-77.4
		c6.3-16.9,20.4-24.6,36.4-29c12.3-3.4,15.8,0,15.2,12.9c-0.7,15.1-7.6,28.4-12.3,42.4c-0.6,2.7,0.2,3.7,2.9,2.2
		c13.2-16.2,24.9-33.7,40.5-47.9c14.3-13.1,29.4-25.2,49.7-26.9s33.1,14.1,28.3,34c-6.4,27-17.9,52-29.1,77.1
		c-5.4,12.2-13.4,16.1-23.5,13.8c-9.6-2.2-15.4-11.2-16.4-23.5c-1.1-14.1,6.2-25.9,10-39.4c-5.9-0.7-8,3.9-10.6,6.8
		c-24.9,28.2-44.5,60.3-65,91.6c-20.6,31.8-39,64.9-55.1,99.2c-9.5,20.2-10.8,20.8-33.3,18c-6.4-0.8-10.8,1.5-15.6,5.6
		c-15.9,13.6-33.1,22.8-55.5,16.7c-15.3-4.2-23.2-14.5-27-28.3c-2.3-8.5-4-17.5-2.8-26.6c1.8-3.8,0.8-7.8,0.8-11.7
		C854,1416.1,852,1417.1,850.5,1417.4z"/>
	<path class="st0" d="M2103.7,1009.2c0.1,7.8-0.6,15.6-2.2,23.3c-9.4,17.4-24.9,27.1-43.2,32.2c-10.8,3-19.2-6.3-16.6-17.5
		c0.4-1.9,1.8-4.4-0.7-5.4c-1.9-0.6-4-0.5-5.9,0.2c-25.9,10.1-48.8,24.8-67.8,45.2c-6.4,6.7-12.3,13.9-17.6,21.5
		c-6.6,9.9-4,15,7.7,14.8c23.8-0.4,47.5,2.1,71.2,4.3c11.7,1,22.9,4.7,33,10.7c20.4,12.2,26.3,32.4,16.7,54.3
		c-11.3,25.8-32.3,42-55.1,56.7c-26.8,17.3-55.3,28.7-87.9,27c-14.7-0.8-26.8-6.8-32.9-20.8c-7-16.1-5.4-31.9,6.3-45.4
		c8.9-10.4,19.3-8.2,23.9,4.2c3.2,8.7,9.2,14.1,18.8,12.7c27.7-4.1,52.9-14.3,74-33.1c4-3.6,8.2-8.6,5.6-14.5
		c-2.5-5.5-8.5-5.9-14.1-6.7c-26.6-3.7-53.7-1.8-80.2-7.2c-31.3-6.4-39.1-29.5-32.1-55.8s24.4-45.6,45-62.5
		c28-23,58.1-42.6,92.6-54.2c11.6-3.9,23.8-7,36.4-6C2094.1,988.4,2100.1,993.7,2103.7,1009.2z"/>
	<path class="st0" d="M1942.2,857.3c-3.3,24.3-11.7,49.1-20.7,73.6c-7.6,20.6-15.2,41.3-27.5,59.8c-10.4,15.8-13.8,15.1-31,5
		c-5.5-3.2-6.9-8-5.4-14.2c9.8-41.2,23.7-81,37.3-121c6-17.6,24.1-21.8,39.1-19.5C1942.4,842.3,1942.3,849,1942.2,857.3z"/>
	<path class="st1" d="M1081.6,1817.6c0-9.7,0.1-19.3-0.1-29c-0.1-4.9,1-7.9,6.8-7.8c10,0.2,20,0.2,30,0c4.4-0.1,6.1,1.5,6.1,6
		c0,5.1-2.8,5.5-6.7,5.4c-3.1-0.1-6.2,0-9.3,0c-10.4,0-14.9,6.8-11.2,16.4c1.2,3.1,3.5,2.9,5.8,2.9c4.1,0.1,8.3,0.2,12.4,0
		c4.6-0.2,4.7,2.8,4.7,6.1s-0.6,6.2-5,5.9c-2.4-0.1-4.8,0.2-7.2,0c-7-0.6-11.4,0.1-11.3,9.5c0.2,8.7,3.4,10.8,11,10
		c3.8-0.4,7.6,0.1,11.4-0.1c4.1-0.2,5.4,1.8,5.3,5.6s-1,5.8-5.2,5.7c-10.3-0.1-20.7-0.2-31,0c-5,0.1-6.7-2.1-6.6-6.9
		C1081.7,1837.6,1081.6,1827.6,1081.6,1817.6z"/>
	<path class="st2" d="M958.8,1854.4c-10.5,0.2-18.8-3.6-23.5-13.4c-1.4-2.9-3.6-7.3,0.8-8.8c3.6-1.2,8.9-3.1,11.8,2.5
		c0.8,1.5,1.2,3.3,2.4,4.5c4,4.2,8.8,5.9,13.5,1.5s3.5-9.2-0.7-13.5s-9.8-4.8-14.6-7.4c-8.5-4.6-14.4-10.9-13.5-21.1
		c0.9-9.7,8-16,18.6-17.6c11.5-1.7,21.2,2.5,25.4,11.3c1.4,3.1,4.7,7.9-0.2,9.7c-3.7,1.4-9.8,3.5-12.4-2.9c-1.9-4.6-4.7-7.9-10-6.7
		c-3.3,0.8-6,2.8-6.3,7.1c-0.4,5.6,3.2,8,7.2,10.2s8.2,3.5,12,5.7c10.2,5.9,13.9,14.6,11.1,25.1
		C977.9,1850,970.8,1854.4,958.8,1854.4z"/>
	<path class="st3" d="M1108.2,719.2c0-10,0.2-20-0.1-30c-0.1-5,1.8-6.7,6.6-6.6c9.7,0.2,19.3,0.2,29,0c4.2,0,6.3,1.4,6.2,6
		c-0.1,4.1-2.1,5.4-5.8,5.3s-7.6,0.4-11.4-0.1c-8.3-1.1-10.6,2.4-10.5,10.5c0.1,7.3,2.3,10.1,9.5,9.1c2-0.3,4.1,0,6.2-0.1
		c4.5-0.2,8.1,0,7.9,6.3c-0.2,5.7-3.3,5.9-7.5,5.8c-1.7-0.1-3.5,0.2-5.2,0c-7.3-0.8-11.1,0.6-11,9.7c0.1,8.9,3.7,10.5,11.1,9.9
		c3.8-0.3,7.6,0,11.4,0c4.1-0.1,5.3,2,5.3,5.8c0,4-1.9,5.5-5.7,5.5c-10-0.1-20-0.2-30,0.1c-5.4,0.2-6.2-2.6-6.1-7
		C1108.3,739.2,1108.2,729.2,1108.2,719.2z"/>
	<path class="st4" d="M869.1,1817.2c0-9.7,0.2-19.3-0.1-28.9c-0.2-5.3,1.7-7.5,7.1-7.4c9.3,0.3,18.6,0.1,27.9,0.1
		c3.6,0,6.9,0.2,7,5.3c0.2,5.6-3.3,6-7.4,6c-3.8,0-7.6,0.3-11.4-0.1c-6-0.5-8.2,1.4-8.7,7.9c-0.8,9.8,2.9,12.6,12.1,11.8
		c3.6-0.3,9.6-3.2,11,3.8c1.8,8.8-4.4,7.8-10.1,8.2c-5.1,0.4-12.8-3.9-13,7.4c-0.2,9.2,2.1,13.5,11.9,12c3.4-0.5,6.9-0.1,10.3,0
		c3.9,0,5.4,2.2,5.3,6c-0.1,3.4-1.7,5.1-5,5.2c-10.7,0.1-21.3,0.1-32,0c-5,0-5-3.6-5-7.2C869.1,1837.2,869.1,1827.2,869.1,1817.2z"
		/>
	<path class="st1" d="M1207.7,1843.2c6.7,0,12.2,0,17.7,0c3.6,0,6,1,6.2,5.2c0.2,4.5-2,6.1-6.3,6.1c-10-0.1-20,0.1-30,0
		c-9-0.1-11.1-3.7-5.9-11.2c6.1-8.8,13-16.9,19.4-25.4c4-5.3,7-11.1,5.9-18.1c-0.5-3.2-1.8-6.1-5.2-7c-3.7-0.9-5.7,1.9-7.3,4.5
		c-0.9,1.4-0.9,3.4-1.8,4.8c-2.9,4.5-7.6,3.2-11.2,2.1c-3.8-1.2-2.3-5.3-1.5-8.1c3.4-11.7,14.9-17.3,28.3-14
		c9.9,2.5,14.8,11.6,12.8,23.5c-1.4,8.6-6.4,15.1-11.4,21.7C1213.8,1831.7,1209.6,1835.9,1207.7,1843.2z"/>
	<path class="st4" d="M1344.7,1854.5c-3.8,0-7.6,0.3-11.4-0.1c-3.2-0.3-7.5,2-9.2-2.2s0.1-8,2.9-11.4c6.2-7.8,12.4-15.6,18.5-23.5
		c3.7-4.8,5.8-10.1,5.4-16.3c-0.2-4.1-1.3-7.8-6-8.3c-4.1-0.4-6.4,2.3-7.2,6c-0.7,3.3-1.6,5.6-5.6,6.1c-7.7,0.9-10.4-1.9-8-9.2
		c3.8-11.9,16.8-17.7,29.5-13.1c10.6,3.8,14.8,17,9.6,29.7c-3.6,8.8-10.7,15.1-15.4,23.1c-1.2,2-4,3.5-2.9,6.1
		c1.4,3.3,4.8,1.6,7.3,1.8c3.4,0.3,6.9,0.1,10.3,0.2s4.6,2.3,4.6,5.6s-1.3,5.3-4.8,5.4c-5.9,0.1-11.7,0-17.6,0L1344.7,1854.5z"/>
	<path class="st5" d="M1319.4,719.2c0,10-0.2,19.9,0.1,29.9c0.2,5.4-1.7,7.3-7.1,7.2c-5.2-0.1-7.5-1.9-7.5-7.2
		c0.1-19.6,0.2-39.2,0-58.8c-0.1-5.9,2.6-7.6,8.1-7.7c6.1-0.1,6.6,3.1,6.5,7.8C1319.3,700,1319.4,709.6,1319.4,719.2z"/>
	<path class="st6" d="M1476.9,718c0.6-5.8,3.9-9.1,10.5-8.9s10.2,4,9.7,10.3c-0.4,6-4.3,10.2-10.6,10S1477,725.2,1476.9,718z"/>
	<path class="st7" d="M1534.9,1816.8c0.4-6,3.7-9.4,10.4-9.4c6.3,0.1,9.8,3.4,9.9,9.4c0.1,6.3-3.8,10.7-10,10.9
		S1535,1824.2,1534.9,1816.8z"/>
	<path class="st8" d="M740.9,709c7,0.2,10.5,3.5,10.5,10.2c0,6.2-3.4,9.8-9.2,10.2c-6.5,0.5-10.6-3.8-10.9-9.9
		S734.5,709.3,740.9,709z"/>
	<path class="st9" d="M693.5,1818.3c-0.8,5.8-4,10-10.6,9.4c-5.7-0.5-9.7-4.3-9.6-10.1c0.1-6,3.4-10.3,10.3-10.2
		S693.4,1811.3,693.5,1818.3z"/>
	<path class="st10" d="M1161.8,1342.9c0,12.1,0,24.1-0.1,36.2C1158.2,1367,1159.3,1354.9,1161.8,1342.9z"/>
	<path class="st11" d="M227.4,1550.3c-3.5,4.1-8,4.8-12.9,4C218.5,1552.4,222.6,1550.2,227.4,1550.3z"/>
	<path class="st0" d="M1853.8,1094.9c-3.6-11.8-14.5-21.1-26.5-20.7c-9.9,0.3-19-0.6-28.6-4.4c-16.9-6.6-33,0.4-46.5,10.1
		c-60.5,43.2-96.5,101.5-105,175.9c-2,17.3-27.6,51.2-44.6,57c-7.7,2.6-12.8-0.3-13.9-8.8c-1.1-7.9-0.9-15.9,0.6-23.7
		c5.3-26.3,12.2-52.1,19.7-77.8c25.2-86.6,57.5-170.7,89.6-254.8c7.2-18.9,15.9-37.4,20.6-57.2c2-8.5-4.2-15.8-12.3-14.2
		c-15,3-27.8,9.3-35.4,23.8c-14.7,28.1-26,57.7-37.1,87.3c-15.6,41.9-30.5,84-45.5,126.1c-2.3,6.4-5.4,9.8-12,5.9
		c-11.8-7.1-23-2.1-33.6,2.2c-37.1,15-65.2,41.6-89.5,72.3c-26.6,33.7-46.5,71.1-51.8,114.1c-2.5,20.1-14.6,31.8-27.9,43.7
		c-4.8,4.3-10.6,7.1-17,4.3s-6.7-9.4-7.1-15.1c-0.9-12.8,0.7-25.5,3.1-38c7.8-40.3,18.5-79.7,35.8-117.2c4.8-10.5,0.4-22-9.8-24.1
		c-9.8-2.1-21.5-0.2-27,6.6c-8.5,10.4-14.9,9.4-26,5.3c-20.7-7.7-40,0.8-57.6,11.1c-36.1,21-61,52.9-82,88
		c-13,21.7-22.8,44.7-24.7,70.4c-1.5,12-1.6,24.2-0.1,36.2c-0.2,12.7,4.5,23.7,12.4,33.1c18.5,22,44.7,23.7,69.6,4.1
		c22.4-17.6,40.2-39.3,55-63.7c1.8-3,2.5-7.2,6.7-8.6c2.9,2.6,1.5,5.9,1.8,8.8c3.7,44.7,38.7,62.5,75.9,40.9
		c8.9-5.3,16.8-12,23.4-20c4.7-5.6,7.8-6.5,13.8-1.3c8.1,7,17.6,9,28.8,5.9c17.1-4.7,31.1-14.1,43.9-25.7
		c20.9-18.9,36.9-41.6,51.5-65.5c2-3.3,2.9-8.6,8.7-8.8c-1,11.2-2.5,22.1-2.9,33c-1.4,34.5,17.4,55.1,53.3,45.8
		c20.5-5.3,35-18.3,47.6-34c5.1-6.3,8.1-7.2,14.1-0.8c9.1,9.8,21.2,13.4,34.6,12.7c25.3-1.5,44.7-15.1,61.8-31.8
		c46.5-45.4,76.2-100.5,91.4-163.4C1856.5,1125.2,1858.5,1110,1853.8,1094.9z M1326.9,1209.6c-25.1,58.6-55.9,113.5-100.5,159.8
		c-1.4,1.6-2.8,3-4.4,4.4c-3.7,2.8-6.2,8.1-12,6.3c-3.4-1-5.3-6.6-5.1-16.3c2.7-22.7,11.8-46.1,23.3-68.5
		c16.9-33.2,38.7-62.5,71.1-82.4c6.7-4.1,14.1-7,21.3-10.2c2.1-0.9,5.1-1.5,6.9,0.2C1329.5,1204.9,1327.8,1207.5,1326.9,1209.6
		L1326.9,1209.6z M1564.5,1166.9c-26,53.6-55.3,105.3-92.7,152c-2.6,3.2-5.8,5.8-8.7,8.7s-6,5.1-10,3.6c-4.9-1.8-3.8-6.8-5-10.6
		c2.7-19.5,8.2-38.4,16.4-56.2c20.2-44.1,49.4-80.6,92.8-104.3c3.2-1.7,6.7-5.8,10-2.2C1570,1160.7,1565.9,1164,1564.5,1166.9
		L1564.5,1166.9z M1804.5,1135c-2.1,15.9-8.8,33.9-16.6,51.6c-13.6,31-28.8,60.9-53.6,84.9c-6.2,6-12.8,11.6-20.2,15.8
		c-11.2,6.3-19.6,2.3-22-10.3c-4-21.4,1-41.8,8.5-61.6c15.2-40.2,37.2-75.8,71.9-102.4c5.4-4.2,11.4-10.8,16.3,1.1
		c0.6,1.5,3.4,2.3,5.3,2.9C1804.8,1120.5,1804.8,1120.4,1804.5,1135L1804.5,1135z"/>
	<path class="st0" d="M675.2,1285.7c-3.6,0.5-6.9,0.8-9.8-1.4c-13.2-9.8-26.9-6.2-40-0.7c-28.5,11.8-48.9,33.8-67.3,57.5
		c-29.8,38.3-49.5,80.8-51.6,129.8c0.6,6.8-1.6,13.2,0,19.9s2.1,13.6,3.9,20.2c5.6,19.9,24,37.1,48.3,35.4
		c17.5-1.2,32.3-8.6,46-18.7c28-20.8,49.1-47.7,66.5-77.8c22.2-38.4,41-77.9,44-123.2C716.7,1303,705.5,1281.2,675.2,1285.7z
		 M663.5,1346.4c-3.1,17.3-8.8,33.9-16,50c-14.7,32.7-30.4,64.8-57.7,89.4c-5,4.7-10.6,8.8-16.5,12.2c-11.3,6.5-19.2,3.3-22.3-9.4
		c-1.5-6.3-2.7-12.9-1.5-19.8c10.3-59.6,36.4-110.1,85.7-147.3c5-3.8,8.2-4.2,11.2,1.8c1.3,2.6,3.6,4.7,6.4,4.7
		C666.2,1328.4,665,1337.8,663.5,1346.4L663.5,1346.4z"/>
	<path class="st2" d="M1085,724.1c-3.6-5-4.1-7.2-0.5-12.4c7.5-10.9,1.1-25.1-11.9-28c-8.5-1.9-17.2-0.5-25.8-0.9
		c-4.9-0.2-5.6,2.7-5.5,6.7c0.1,10,0,20,0,30v11.4c0,28,1.1,29,29.3,25.2C1085.9,753.9,1094.1,736.6,1085,724.1z M1062.3,693.9
		c6.7,0.4,10.1,4,10.1,10.3c0,6-3.2,9-9.7,9.3c-8.5,0.5-7.1-5-7.1-10.1C1055.8,698.8,1054.5,693.4,1062.3,693.9L1062.3,693.9z
		 M1063,744.9c-9.4,0.7-6.9-6.1-7.3-11.1c-0.5-5.6-0.5-10.6,7.6-9.9c6.5,0.5,10.2,2.7,10.2,10S1070,744.4,1063,744.9L1063,744.9z"/>
	<path class="st2" d="M881.6,723.6c-3.5-4.7-3.9-6.6-0.4-11.5c8-11.2,1.4-26.1-12.2-28.4c-7.7-1.3-15.8-0.6-23.7-1
		c-5.4-0.3-7.3,1.9-7.2,7.2c0.3,9.7,0.1,19.3,0.1,29c0,4.1,0,8.3,0,12.4c0,26.4,0,26.4,26.6,24.9c0.7,0,1.4,0,2.1-0.1
		C882.9,754.2,891.4,736.5,881.6,723.6z M852.6,703.4c0.5-3.5-2.1-9.5,6-9.5c6.6,0.1,10.4,3.3,10.7,9.7c0.3,6.6-3.2,9.7-10.1,9.9
		C851.4,713.9,852.6,708.8,852.6,703.4z M870.4,734.7c-0.4,7.7-4.5,10-11.3,10.2c-8.9,0.3-5.9-6.4-6.5-9.9
		c-0.2-6.2-1.2-11.8,7.2-11.1C866.6,724.5,870.8,726.8,870.4,734.7L870.4,734.7z"/>
	<path class="st4" d="M1053.9,1801.9c-1.9-10.2-10.4-18.8-20.6-20.3c-6.1-0.8-12.4-0.3-18.5-0.7c-5.8-0.4-8,1.9-7.8,7.8
		c0.3,10,0.1,20,0.1,30c0,5.9-0.1,11.7,0,17.6c0.4,21-3.4,18,19,18.1c16.7,0.1,25.7-8.3,28.6-24.8
		C1056,1820.4,1055.8,1811,1053.9,1801.9z M1037.6,1837.2c-1.7,4.8-7.4,6.3-12.2,5.3c-4.6-1-2.6-5.7-2.7-8.8
		c-0.3-5.5-0.1-11-0.1-16.5c0-4.8-0.3-9.7,0.1-14.5c0.3-3.4-2.2-8.6,3.2-9.5c4.7-0.8,10.5,0.3,12.1,5.7
		C1041.5,1811.5,1042,1824.6,1037.6,1837.2L1037.6,1837.2z"/>
	<path class="st2" d="M1016.8,738.2c-3.4-6.7-5-12,1.3-19.1c6.5-7.3,5.9-17.6,1.3-26.3c-4.2-8-12.1-10.5-21-10.2
		c-5.5,0.2-11,0.3-16.5,0c-5-0.3-6.6,1.8-6.5,6.7c0.3,10,0.1,20,0.1,29.9c0,9.6,0.2,19.3-0.1,28.9c-0.2,5.3,0.7,8.3,7.1,8.1
		c6.2-0.2,7.7-3,7.3-8.4c-0.3-3.4-0.3-6.9,0-10.3c0.2-2.8-1.6-6.6,2.8-7.8s6,2.1,7.3,5.4c2.3,5.7,4.4,11.5,7,17.1
		c3,6.4,9.4,4.6,13.6,3.2c4.9-1.6,0.3-5.8-0.3-8.8S1018.2,741,1016.8,738.2z M996.6,717.6c-10,0.2-5.7-7.1-6.9-11.7
		c1.5-4.3-3.3-12,6.5-11.9c7.8,0.1,11.2,4.7,11.2,11.8C1007.5,712.8,1004.9,717.5,996.6,717.6z"/>
	<path class="st2" d="M1282.9,746.8c-0.8-3.3-2.6-6.3-4-9.5c-3-6.5-3.5-11.4,1.9-18.3c10.4-13.2,3.5-35.9-16.5-36.3
		c-6.5-0.1-13.1,0.1-19.6-0.1c-4.8-0.2-6.8,1.7-6.7,6.7c0.2,10,0.1,20,0.1,29.9c0,9.3,0.1,18.6-0.1,27.9c-0.1,5.3,0.1,9.1,7.4,9.2
		s7.9-3.3,7.5-8.9c-0.2-3.8-0.2-7.6,0-11.3c0.1-2.5-1-5.8,3.2-6.4c3.4-0.5,4.8,1.3,5.9,4.3c2.3,6.1,5,12,7.7,17.9
		c3.2,7.1,10,4.8,14.3,3.3C1288.8,753.6,1283.6,749.7,1282.9,746.8z M1259.7,717.6c-10.9,0.4-5.5-7.8-7.2-12.3
		c1.6-4.1-3.2-11.5,6.1-11.3c7.3,0.1,11.5,3.2,11.3,11.3C1269.8,712.5,1268.1,717.3,1259.7,717.6z"/>
	<path class="st2" d="M837.7,1793.6c-9-15.1-23.8-12.4-37.8-12.5c-4.9,0-5.5,3-5.4,6.8c0.1,9.7,0,19.3,0,29c0,10-0.1,20,0,30
		c0,2.6-0.7,5.5,2.7,7.2c8.2,4,31.5-1.1,37.7-8.3C844.2,1834.7,845.8,1807.1,837.7,1793.6z M825.6,1835.9c-1.5,5.5-7.1,7.6-12.5,7
		c-6.4-0.8-3.3-6.4-3.7-10c-0.5-5.1-0.1-10.3-0.1-15.4s-0.3-10.3,0.1-15.4c0.3-3.3-2.4-8.4,3.5-9.1c5.3-0.7,11,0.7,12.7,6.4
		C829,1811.3,829,1824,825.6,1835.9L825.6,1835.9z"/>
	<path class="st2" d="M957.7,749.4c-6.5-20.6-13.3-41-19.5-61.7c-1.6-5.2-4.8-4.9-9.3-5c-4.1-0.6-6.5,1.4-7.9,6.3
		c-5.7,19.7-12.1,39.3-18.1,58.9c-0.9,2.8-4.6,7.2,1.5,7.8c4.3,0.5,11.2,3.4,12.6-4.5c1.2-7,4-9.9,11.5-9.5
		c7.3,0.4,13.2-0.1,14.4,9.8c1,7.5,8.2,4.3,12.8,4.2C959.8,755.7,958.6,752,957.7,749.4z M929.7,730.1c-2.7-0.6-7.8,0.8-5.9-4.2
		c2.3-6.1,0-17.5,6-17.5s3.7,11.4,5.9,17.6C937.6,731,932.3,729.5,929.7,730.1L929.7,730.1z"/>
	<path class="st2" d="M1393,747.5c-6.2-19.3-12.4-38.5-18.3-57.9c-1.5-4.9-3.6-7.5-9.3-7.1c-5.3,0.4-7.6,2.2-9.1,7.6
		c-5.4,19.2-10.9,38.3-17.8,57c-3.7,9.8,0.8,9.1,7.5,9.2c6,0.1,6.8-4,7.3-8c1.3-8.6,7.8-6,12.8-6.2s10.8-1.2,11.5,6.6
		c0.5,5.5,3.7,7.8,9.4,7.4C1394.2,757.2,1394.8,753.4,1393,747.5z M1366.7,729.9c-2.6-0.3-7.8,1.9-7-2.7c1.1-6.6,0.4-14.3,7.3-20.5
		c1.8,7.1,3.4,13.2,4.8,19.3C1372.7,730.6,1369.2,730.3,1366.7,729.9L1366.7,729.9z"/>
	<path class="st2" d="M1219.9,748c-6.5-19.5-12.6-39.1-18.4-58.8c-1.4-4.8-3.7-6.5-8.7-6.6s-7.9,1.7-9.3,6.2
		c-6,19.7-11.6,39.5-18,59c-2.6,7.8,0.5,8.5,7.1,8.5c5.9,0,6.6-3.9,7.6-7.9c2.2-8.9,9.4-5.8,15.1-6.5c5.2-0.6,8.2,0.9,9.2,6.6
		c0.8,4.5,2.6,8.9,8.7,7.4C1219.7,756.8,1222.3,755.1,1219.9,748z M1193.5,730.2c-3.9-0.1-8,0.2-7-5.7s2.3-11.7,6.6-18.7
		c2.2,7.3,3.8,12.9,5.5,18.5C1200.1,729,1197.8,730.2,1193.5,730.2L1193.5,730.2z"/>
	<path class="st5" d="M1430.7,1791.8c-6-14-24.8-14.7-33.3-2c-5.8,8.6-5,18.3-5,29.8c-0.3,5.7-0.5,13.4,2.2,20.5
		c2.9,7.7,7.8,13.7,17,14.3c8.2,0.5,15.7-1.7,18.9-9.5C1437.6,1827.4,1438.1,1809.2,1430.7,1791.8z M1419.1,1837.1
		c-0.6,3-1.9,5.4-5,5.7c-3.8,0.4-5.2-2.4-6.4-5.5c-2.5-6.3-1-13-1.5-19.4c0.5-6.2-0.8-12.4,1.1-18.5c1.1-3.3,2.3-6.9,6.6-6.6
		c3.7,0.2,4.8,3.3,5.4,6.5C1421.9,1811.8,1421.8,1824.6,1419.1,1837.1L1419.1,1837.1z"/>
	<path class="st3" d="M1298.3,1817.5c0-5.2,0.5-10.4-0.1-15.5c-1.5-12.2-8.9-20.1-19.1-21c-10.5-0.9-18.7,4.5-21.2,15.3
		c-3.3,13.8-3.4,28.2-0.1,42c2.1,8.7,7.5,15.5,17.7,16s16.8-4,20.7-13.5C1299.3,1833.2,1298,1825.3,1298.3,1817.5z M1282.4,1838.3
		c-1.1,2.2-2.3,4.3-5.1,4.5c-3.4,0.2-5.1-2.3-5.7-5c-2.8-13.1-2.8-26.6-0.2-39.8c0.6-2.8,2.3-5.2,5.4-5.3s4.3,2.5,5.6,5.1
		c3.3,6.6,1,13.5,2,19.6C1284,1824.8,1285.7,1831.8,1282.4,1838.3z"/>
</g>
</svg>
